<svg xmlns="http://www.w3.org/2000/svg" xmlns:xlink="http://www.w3.org/1999/xlink" width="137.752" height="17.696" viewBox="0 0 137.752 17.696">
  <defs>
    <clipPath id="clip-path">
      <rect id="Rectangle_733" data-name="Rectangle 733" width="137.752" height="17.696" fill="none"/>
    </clipPath>
  </defs>
  <g id="Group_433" data-name="Group 433" transform="translate(0 0)">
    <g id="Group_409" data-name="Group 409" transform="translate(0 0)" clip-path="url(#clip-path)">
      <path id="Path_702" data-name="Path 702" d="M4.085,6.306a.666.666,0,0,0,.886.457,66.237,66.237,0,0,1,9.862-2.182.609.609,0,0,0,.454-.849c-.3-.842-.449-1.261-.754-2.1a.82.82,0,0,0-.837-.549A61.217,61.217,0,0,0,4.063,3.009.862.862,0,0,0,3.5,4.014c.233.915.349,1.374.586,2.292" transform="translate(-1.056 -0.328)"/>
      <path id="Path_703" data-name="Path 703" d="M16.19,8.99a.8.8,0,0,0-.806-.583A53.225,53.225,0,0,0,.5,12.433a.934.934,0,0,0-.482.983c.186.982.28,1.474.47,2.457a.579.579,0,0,0,.861.425,58.387,58.387,0,0,1,15.138-4.453.594.594,0,0,0,.374-.827c-.262-.814-.4-1.219-.668-2.029" transform="translate(0 -2.552)"/>
      <path id="Path_704" data-name="Path 704" d="M18.5,16.859a.788.788,0,0,0-.854-.591,83.248,83.248,0,0,0-9.452,2.6.8.8,0,0,0-.512.943c.247.912.372,1.368.622,2.282a.773.773,0,0,0,1.044.48A93.179,93.179,0,0,1,18.8,19.714a.6.6,0,0,0,.345-.808c-.252-.82-.38-1.23-.64-2.047" transform="translate(-2.327 -4.939)"/>
      <path id="Path_705" data-name="Path 705" d="M37.821,11.612c0-1.1-.7-1.563-2.086-1.563H34.083v3.125h1.632c1.342,0,2.106-.542,2.106-1.562M35.405,4.569a9.4,9.4,0,0,0-1.322.1V7.444h1.4c1.239,0,1.818-.521,1.818-1.417,0-.854-.6-1.458-1.9-1.458m5.8,7.188c0,2.438-2.437,4.063-5.2,4.063h-5.08V2.361a29.158,29.158,0,0,1,4.481-.417c2.787,0,5.018,1.313,5.018,3.6a2.7,2.7,0,0,1-1.9,2.667,3.3,3.3,0,0,1,2.684,3.541" transform="translate(-9.396 -0.59)"/>
      <path id="Path_706" data-name="Path 706" d="M53.409,14.581V12.789h-.6c-1.4,0-2.684.313-2.684,1.292,0,.75.5,1.021,1.507,1.021a2.87,2.87,0,0,0,1.777-.521m3.035-3.9v5.48c-1.115.854-2.912,1.312-5.349,1.312-2.168,0-3.965-.9-3.965-2.875,0-2.979,2.87-3.708,6.278-3.812-.063-1.292-.579-1.626-1.715-1.626-.6,0-2.189.271-2.395.271-.5,0-.888-.313-1.218-1.229l-.249-.75a11,11,0,0,1,3.9-.812c2.973,0,4.708,1.125,4.708,4.042" transform="translate(-14.32 -2.018)"/>
      <path id="Path_707" data-name="Path 707" d="M72.688,9.822V17.24h-3.1V10.926c0-1.1-.723-1.667-1.983-1.667a5.2,5.2,0,0,0-1.321.167V17.24H63.169l.02-9.272a10,10,0,0,1,5.122-1.354c2.375,0,4.378,1.187,4.378,3.208" transform="translate(-19.193 -2.009)"/>
      <path id="Path_708" data-name="Path 708" d="M78.773,12.146c0-3.646,2.519-5.562,5.782-5.562a11.632,11.632,0,0,1,2.726.354,4.649,4.649,0,0,1-1.032,2.479,5.414,5.414,0,0,0-1.26-.187c-2.086,0-2.932,1.083-2.932,2.728,0,1.667.785,2.689,2.747,2.689a5.73,5.73,0,0,0,1.919-.375l.558,2.5a9,9,0,0,1-3.242.667c-3.18,0-5.266-1.917-5.266-5.292" transform="translate(-23.934 -2)"/>
      <path id="Path_709" data-name="Path 709" d="M99.515,12c0-1.709-.826-2.709-2.271-2.709-1.4,0-2.272,1-2.272,2.709,0,1.791.847,2.729,2.272,2.729,1.445,0,2.271-.938,2.271-2.729m-7.661,0a5.389,5.389,0,1,1,10.779,0,5.39,5.39,0,1,1-10.779,0" transform="translate(-27.908 -2)"/>
      <path id="Path_710" data-name="Path 710" d="M109.859,2.226a6.636,6.636,0,0,1,3.118-1V15.6h-3.118Z" transform="translate(-33.378 -0.372)"/>
      <path id="Path_711" data-name="Path 711" d="M124.521,12c0-1.709-.826-2.709-2.271-2.709-1.4,0-2.272,1-2.272,2.709,0,1.791.847,2.729,2.272,2.729,1.445,0,2.271-.938,2.271-2.729m-7.661,0a5.389,5.389,0,1,1,10.779,0,5.39,5.39,0,1,1-10.779,0" transform="translate(-35.506 -2)"/>
      <path id="Path_712" data-name="Path 712" d="M150.387,9.822V17.24H147.31V10.926c0-1.1-.7-1.667-1.941-1.667a4.245,4.245,0,0,0-1.59.313,4.4,4.4,0,0,1,.248,1.5V17.24H140.95V10.926c0-1.1-.7-1.667-1.941-1.667a5.2,5.2,0,0,0-1.321.167V17.24h-3.119l.022-9.272A8.95,8.95,0,0,1,139.4,6.614a4.821,4.821,0,0,1,3.221,1.146,7.36,7.36,0,0,1,3.758-1.146c2.251,0,4.006,1.208,4.006,3.208" transform="translate(-40.886 -2.009)"/>
      <path id="Path_713" data-name="Path 713" d="M167.656,10.226c0-1.917-.991-2.6-2.581-2.6a3.754,3.754,0,0,0-1.61.333v5.229a10.808,10.808,0,0,0,1.589.125c1.817,0,2.6-1.417,2.6-3.084m3.077-.4c0,3.792-2.23,5.979-5.865,5.979A11.659,11.659,0,0,1,160.346,15V2.226a6.7,6.7,0,0,1,3.119-1V6.164A4.6,4.6,0,0,1,166.4,4.976c3.077,0,4.337,2.146,4.337,4.854" transform="translate(-48.718 -0.372)"/>
      <path id="Path_714" data-name="Path 714" d="M177.771,4.9A3.974,3.974,0,0,1,179.34,4.6a3.876,3.876,0,0,1,1.549.292V15.229h-3.118ZM177.729,1.6a1.6,1.6,0,1,1,3.2,0,1.629,1.629,0,0,1-1.611,1.6,1.6,1.6,0,0,1-1.59-1.6" transform="translate(-53.999 0)"/>
      <path id="Path_715" data-name="Path 715" d="M190.771,14.581V12.789h-.6c-1.4,0-2.684.313-2.684,1.292,0,.75.5,1.021,1.507,1.021a2.87,2.87,0,0,0,1.777-.521m3.035-3.9v5.48c-1.115.854-2.912,1.312-5.349,1.312-2.169,0-3.965-.9-3.965-2.875,0-2.979,2.871-3.708,6.279-3.812-.063-1.292-.579-1.626-1.714-1.626-.6,0-2.189.271-2.4.271-.5,0-.888-.313-1.218-1.229l-.248-.75a11,11,0,0,1,3.9-.812c2.974,0,4.709,1.125,4.709,4.042" transform="translate(-56.054 -2.018)"/>
    </g>
  </g>
</svg>
