<svg id="Group_256" data-name="Group 256" xmlns="http://www.w3.org/2000/svg" xmlns:xlink="http://www.w3.org/1999/xlink" width="39.637" height="39.355" viewBox="0 0 39.637 39.355">
  <defs>
    <clipPath id="clip-path">
      <path id="Path_649" data-name="Path 649" d="M0,19.978A19.643,19.643,0,1,0,19.643.336,19.643,19.643,0,0,0,0,19.978" transform="translate(0 -0.336)" fill="none"/>
    </clipPath>
    <clipPath id="clip-path-2">
      <rect id="Rectangle_661" data-name="Rectangle 661" width="39.637" height="39.355" fill="none"/>
    </clipPath>
  </defs>
  <g id="Group_253" data-name="Group 253" transform="translate(0 0.071)">
    <g id="Group_252" data-name="Group 252" clip-path="url(#clip-path)">
      <rect id="Rectangle_659" data-name="Rectangle 659" width="39.286" height="39.285" transform="translate(0 0)" fill="#0d2d4d"/>
      <path id="Path_558" data-name="Path 558" d="M40.953,19.643A19.643,19.643,0,1,0,21.311,39.285,19.643,19.643,0,0,0,40.953,19.643" transform="translate(-1.316 -0.071)" fill="#0d2d4d"/>
      <path id="Path_559" data-name="Path 559" d="M40.971,20.209a19.5,19.5,0,1,0-19.5,19.5,19.5,19.5,0,0,0,19.5-19.5" transform="translate(-1.557 -0.631)" fill="#0e2e4e"/>
      <path id="Path_560" data-name="Path 560" d="M40.987,20.776A19.355,19.355,0,1,0,21.632,40.131,19.355,19.355,0,0,0,40.987,20.776" transform="translate(-1.797 -1.192)" fill="#0e2e4f"/>
      <path id="Path_561" data-name="Path 561" d="M41,21.341A19.211,19.211,0,1,0,21.793,40.552,19.211,19.211,0,0,0,41,21.341" transform="translate(-2.038 -1.752)" fill="#0f2f50"/>
      <path id="Path_562" data-name="Path 562" d="M41.02,21.908A19.067,19.067,0,1,0,21.953,40.975,19.067,19.067,0,0,0,41.02,21.908" transform="translate(-2.277 -2.313)" fill="#0f2f51"/>
      <path id="Path_563" data-name="Path 563" d="M41.037,22.475A18.923,18.923,0,1,0,22.114,41.4,18.923,18.923,0,0,0,41.037,22.475" transform="translate(-2.518 -2.874)" fill="#103052"/>
      <path id="Path_564" data-name="Path 564" d="M41.053,23.041A18.779,18.779,0,1,0,22.274,41.82,18.779,18.779,0,0,0,41.053,23.041" transform="translate(-2.758 -3.434)" fill="#103153"/>
      <path id="Path_565" data-name="Path 565" d="M41.071,23.607A18.635,18.635,0,1,0,22.435,42.242,18.635,18.635,0,0,0,41.071,23.607" transform="translate(-2.999 -3.994)" fill="#113154"/>
      <path id="Path_566" data-name="Path 566" d="M41.087,24.173A18.491,18.491,0,1,0,22.6,42.665,18.491,18.491,0,0,0,41.087,24.173" transform="translate(-3.239 -4.555)" fill="#113255"/>
      <path id="Path_567" data-name="Path 567" d="M41.1,24.74A18.347,18.347,0,1,0,22.757,43.088,18.347,18.347,0,0,0,41.1,24.74" transform="translate(-3.48 -5.116)" fill="#123256"/>
      <path id="Path_568" data-name="Path 568" d="M41.121,25.306a18.2,18.2,0,1,0-18.2,18.2,18.2,18.2,0,0,0,18.2-18.2" transform="translate(-3.72 -5.675)" fill="#123357"/>
      <path id="Path_569" data-name="Path 569" d="M41.138,25.873a18.06,18.06,0,1,0-18.06,18.06,18.06,18.06,0,0,0,18.06-18.06" transform="translate(-3.961 -6.236)" fill="#133358"/>
      <path id="Path_570" data-name="Path 570" d="M41.155,26.439A17.916,17.916,0,1,0,23.24,44.355,17.916,17.916,0,0,0,41.155,26.439" transform="translate(-4.201 -6.797)" fill="#133459"/>
      <path id="Path_571" data-name="Path 571" d="M41.171,27.006A17.772,17.772,0,1,0,23.4,44.778,17.772,17.772,0,0,0,41.171,27.006" transform="translate(-4.441 -7.358)" fill="#14355a"/>
      <path id="Path_572" data-name="Path 572" d="M41.189,27.573A17.628,17.628,0,1,0,23.561,45.2,17.628,17.628,0,0,0,41.189,27.573" transform="translate(-4.682 -7.919)" fill="#14355b"/>
      <path id="Path_573" data-name="Path 573" d="M41.2,28.138A17.484,17.484,0,1,0,23.721,45.622,17.484,17.484,0,0,0,41.2,28.138" transform="translate(-4.922 -8.478)" fill="#15365c"/>
      <path id="Path_574" data-name="Path 574" d="M41.222,28.7a17.34,17.34,0,1,0-17.34,17.34A17.34,17.34,0,0,0,41.222,28.7" transform="translate(-5.163 -9.039)" fill="#15365d"/>
      <path id="Path_575" data-name="Path 575" d="M41.238,29.271a17.2,17.2,0,1,0-17.2,17.2,17.2,17.2,0,0,0,17.2-17.2" transform="translate(-5.402 -9.6)" fill="#16375e"/>
      <path id="Path_576" data-name="Path 576" d="M41.255,29.837A17.052,17.052,0,1,0,24.2,46.889,17.052,17.052,0,0,0,41.255,29.837" transform="translate(-5.643 -10.16)" fill="#163860"/>
      <path id="Path_577" data-name="Path 577" d="M41.272,30.4A16.908,16.908,0,1,0,24.364,47.312,16.908,16.908,0,0,0,41.272,30.4" transform="translate(-5.884 -10.72)" fill="#173861"/>
      <path id="Path_578" data-name="Path 578" d="M41.29,30.97A16.764,16.764,0,1,0,24.525,47.735,16.764,16.764,0,0,0,41.29,30.97" transform="translate(-6.125 -11.281)" fill="#173962"/>
      <path id="Path_579" data-name="Path 579" d="M41.306,31.536a16.62,16.62,0,1,0-16.62,16.62,16.62,16.62,0,0,0,16.62-16.62" transform="translate(-6.364 -11.842)" fill="#183963"/>
      <path id="Path_580" data-name="Path 580" d="M41.323,32.1A16.476,16.476,0,1,0,24.846,48.579,16.476,16.476,0,0,0,41.323,32.1" transform="translate(-6.605 -12.402)" fill="#183a64"/>
      <path id="Path_581" data-name="Path 581" d="M41.339,32.669A16.333,16.333,0,1,0,25.006,49,16.333,16.333,0,0,0,41.339,32.669" transform="translate(-6.845 -12.962)" fill="#193a65"/>
      <path id="Path_582" data-name="Path 582" d="M41.356,33.236A16.189,16.189,0,1,0,25.168,49.424,16.189,16.189,0,0,0,41.356,33.236" transform="translate(-7.086 -13.523)" fill="#193b66"/>
      <path id="Path_583" data-name="Path 583" d="M41.372,33.8A16.045,16.045,0,1,0,25.328,49.847,16.045,16.045,0,0,0,41.372,33.8" transform="translate(-7.326 -14.084)" fill="#1a3c67"/>
      <path id="Path_584" data-name="Path 584" d="M41.39,34.368a15.9,15.9,0,1,0-15.9,15.9,15.9,15.9,0,0,0,15.9-15.9" transform="translate(-7.566 -14.644)" fill="#1a3c68"/>
      <path id="Path_585" data-name="Path 585" d="M41.407,34.935A15.757,15.757,0,1,0,25.65,50.692,15.757,15.757,0,0,0,41.407,34.935" transform="translate(-7.807 -15.205)" fill="#1b3d69"/>
      <path id="Path_586" data-name="Path 586" d="M41.423,35.5A15.613,15.613,0,1,0,25.81,51.114,15.613,15.613,0,0,0,41.423,35.5" transform="translate(-8.047 -15.765)" fill="#1b3d6a"/>
      <path id="Path_587" data-name="Path 587" d="M41.441,36.068A15.469,15.469,0,1,0,25.972,51.537,15.469,15.469,0,0,0,41.441,36.068" transform="translate(-8.288 -16.326)" fill="#1c3e6b"/>
      <path id="Path_588" data-name="Path 588" d="M41.457,36.633A15.325,15.325,0,1,0,26.132,51.958,15.325,15.325,0,0,0,41.457,36.633" transform="translate(-8.528 -16.886)" fill="#1c3f6c"/>
      <path id="Path_589" data-name="Path 589" d="M41.474,37.2A15.181,15.181,0,1,0,26.293,52.381,15.181,15.181,0,0,0,41.474,37.2" transform="translate(-8.769 -17.447)" fill="#1d3f6d"/>
      <path id="Path_590" data-name="Path 590" d="M41.49,37.766A15.037,15.037,0,1,0,26.453,52.8,15.037,15.037,0,0,0,41.49,37.766" transform="translate(-9.009 -18.007)" fill="#1d406e"/>
      <path id="Path_591" data-name="Path 591" d="M41.508,38.333A14.893,14.893,0,1,0,26.614,53.227,14.893,14.893,0,0,0,41.508,38.333" transform="translate(-9.25 -18.568)" fill="#1e406f"/>
      <path id="Path_592" data-name="Path 592" d="M41.524,38.9A14.749,14.749,0,1,0,26.774,53.649,14.749,14.749,0,0,0,41.524,38.9" transform="translate(-9.489 -19.129)" fill="#1e4170"/>
      <path id="Path_593" data-name="Path 593" d="M41.541,39.465A14.605,14.605,0,1,0,26.935,54.071,14.605,14.605,0,0,0,41.541,39.465" transform="translate(-9.73 -19.689)" fill="#1f4171"/>
      <path id="Path_594" data-name="Path 594" d="M41.557,40.032A14.462,14.462,0,1,0,27.1,54.494,14.461,14.461,0,0,0,41.557,40.032" transform="translate(-9.97 -20.25)" fill="#1f4272"/>
      <path id="Path_595" data-name="Path 595" d="M41.952,40.571A14.318,14.318,0,1,0,27.635,54.888,14.318,14.318,0,0,0,41.952,40.571" transform="translate(-10.509 -20.788)" fill="#1f4272"/>
      <path id="Path_596" data-name="Path 596" d="M41.965,41a14.21,14.21,0,1,0-14.21,14.21A14.21,14.21,0,0,0,41.965,41" transform="translate(-10.69 -21.209)" fill="#1f4373"/>
      <path id="Path_597" data-name="Path 597" d="M41.978,41.419a14.1,14.1,0,1,0-14.1,14.1,14.1,14.1,0,0,0,14.1-14.1" transform="translate(-10.87 -21.628)" fill="#204374"/>
      <path id="Path_598" data-name="Path 598" d="M41.99,41.844A13.994,13.994,0,1,0,28,55.838,13.994,13.994,0,0,0,41.99,41.844" transform="translate(-11.05 -22.048)" fill="#204475"/>
      <path id="Path_599" data-name="Path 599" d="M42,42.268A13.886,13.886,0,1,0,28.116,56.154,13.886,13.886,0,0,0,42,42.268" transform="translate(-11.229 -22.468)" fill="#204476"/>
      <path id="Path_600" data-name="Path 600" d="M42.014,42.693A13.778,13.778,0,1,0,28.235,56.472,13.778,13.778,0,0,0,42.014,42.693" transform="translate(-11.409 -22.889)" fill="#204577"/>
      <path id="Path_601" data-name="Path 601" d="M42.027,43.118a13.67,13.67,0,1,0-13.67,13.67,13.67,13.67,0,0,0,13.67-13.67" transform="translate(-11.589 -23.309)" fill="#214578"/>
      <path id="Path_602" data-name="Path 602" d="M42.038,43.542A13.563,13.563,0,1,0,28.476,57.1,13.562,13.562,0,0,0,42.038,43.542" transform="translate(-11.768 -23.729)" fill="#214679"/>
      <path id="Path_603" data-name="Path 603" d="M42.051,43.967A13.455,13.455,0,1,0,28.6,57.421,13.455,13.455,0,0,0,42.051,43.967" transform="translate(-11.949 -24.149)" fill="#21467a"/>
      <path id="Path_604" data-name="Path 604" d="M42.063,44.391A13.347,13.347,0,1,0,28.717,57.738,13.347,13.347,0,0,0,42.063,44.391" transform="translate(-12.129 -24.569)" fill="#21477b"/>
      <path id="Path_605" data-name="Path 605" d="M42.076,44.816A13.239,13.239,0,1,0,28.837,58.055,13.239,13.239,0,0,0,42.076,44.816" transform="translate(-12.309 -24.99)" fill="#22477c"/>
      <path id="Path_606" data-name="Path 606" d="M42.088,45.241A13.131,13.131,0,1,0,28.957,58.372,13.131,13.131,0,0,0,42.088,45.241" transform="translate(-12.489 -25.41)" fill="#22487d"/>
      <path id="Path_607" data-name="Path 607" d="M42.1,45.664A13.023,13.023,0,1,0,29.077,58.687,13.023,13.023,0,0,0,42.1,45.664" transform="translate(-12.669 -25.829)" fill="#22487e"/>
      <path id="Path_608" data-name="Path 608" d="M42.113,46.089A12.915,12.915,0,1,0,29.2,59,12.915,12.915,0,0,0,42.113,46.089" transform="translate(-12.849 -26.25)" fill="#22497f"/>
      <path id="Path_609" data-name="Path 609" d="M42.126,46.513A12.807,12.807,0,1,0,29.318,59.321,12.808,12.808,0,0,0,42.126,46.513" transform="translate(-13.029 -26.67)" fill="#234980"/>
      <path id="Path_610" data-name="Path 610" d="M42.138,46.938a12.7,12.7,0,1,0-12.7,12.7,12.7,12.7,0,0,0,12.7-12.7" transform="translate(-13.209 -27.09)" fill="#234a81"/>
      <path id="Path_611" data-name="Path 611" d="M42.15,47.363A12.592,12.592,0,1,0,29.559,59.954,12.592,12.592,0,0,0,42.15,47.363" transform="translate(-13.389 -27.51)" fill="#234a82"/>
      <path id="Path_612" data-name="Path 612" d="M42.163,47.788A12.484,12.484,0,1,0,29.679,60.272,12.484,12.484,0,0,0,42.163,47.788" transform="translate(-13.569 -27.931)" fill="#234b83"/>
      <path id="Path_613" data-name="Path 613" d="M42.175,48.212A12.376,12.376,0,1,0,29.8,60.588,12.376,12.376,0,0,0,42.175,48.212" transform="translate(-13.749 -28.35)" fill="#244b85"/>
      <path id="Path_614" data-name="Path 614" d="M42.187,48.636A12.268,12.268,0,1,0,29.919,60.9,12.268,12.268,0,0,0,42.187,48.636" transform="translate(-13.929 -28.77)" fill="#244c86"/>
      <path id="Path_615" data-name="Path 615" d="M42.2,49.061a12.16,12.16,0,1,0-12.16,12.16A12.16,12.16,0,0,0,42.2,49.061" transform="translate(-14.109 -29.191)" fill="#244c87"/>
      <path id="Path_616" data-name="Path 616" d="M42.213,49.485A12.052,12.052,0,1,0,30.16,61.538,12.052,12.052,0,0,0,42.213,49.485" transform="translate(-14.29 -29.611)" fill="#244d88"/>
      <path id="Path_617" data-name="Path 617" d="M42.225,49.91A11.944,11.944,0,1,0,30.28,61.855,11.944,11.944,0,0,0,42.225,49.91" transform="translate(-14.47 -30.031)" fill="#254d89"/>
      <path id="Path_618" data-name="Path 618" d="M42.237,50.334A11.837,11.837,0,1,0,30.4,62.17,11.837,11.837,0,0,0,42.237,50.334" transform="translate(-14.65 -30.45)" fill="#254e8a"/>
      <path id="Path_619" data-name="Path 619" d="M42.249,50.759A11.729,11.729,0,1,0,30.521,62.487,11.729,11.729,0,0,0,42.249,50.759" transform="translate(-14.83 -30.871)" fill="#254e8b"/>
      <path id="Path_620" data-name="Path 620" d="M42.262,51.184A11.621,11.621,0,1,0,30.641,62.8,11.621,11.621,0,0,0,42.262,51.184" transform="translate(-15.009 -31.292)" fill="#254f8c"/>
      <path id="Path_621" data-name="Path 621" d="M42.273,51.608A11.513,11.513,0,1,0,30.76,63.121,11.513,11.513,0,0,0,42.273,51.608" transform="translate(-15.189 -31.711)" fill="#264f8d"/>
      <path id="Path_622" data-name="Path 622" d="M42.286,52.033A11.405,11.405,0,1,0,30.881,63.438,11.405,11.405,0,0,0,42.286,52.033" transform="translate(-15.369 -32.132)" fill="#26508e"/>
      <path id="Path_623" data-name="Path 623" d="M42.3,52.457A11.3,11.3,0,1,0,31,63.754a11.3,11.3,0,0,0,11.3-11.3" transform="translate(-15.549 -32.552)" fill="#26508f"/>
      <path id="Path_624" data-name="Path 624" d="M42.311,52.881A11.189,11.189,0,1,0,31.121,64.071,11.189,11.189,0,0,0,42.311,52.881" transform="translate(-15.729 -32.972)" fill="#265190"/>
      <path id="Path_625" data-name="Path 625" d="M42.323,53.306A11.081,11.081,0,1,0,31.242,64.388,11.081,11.081,0,0,0,42.323,53.306" transform="translate(-15.909 -33.392)" fill="#275191"/>
      <path id="Path_626" data-name="Path 626" d="M42.335,53.731A10.974,10.974,0,1,0,31.362,64.7,10.974,10.974,0,0,0,42.335,53.731" transform="translate(-16.089 -33.812)" fill="#275292"/>
      <path id="Path_627" data-name="Path 627" d="M42.347,54.156A10.866,10.866,0,1,0,31.482,65.021,10.866,10.866,0,0,0,42.347,54.156" transform="translate(-16.269 -34.233)" fill="#275293"/>
      <path id="Path_628" data-name="Path 628" d="M42.36,54.58A10.758,10.758,0,1,0,31.6,65.338,10.758,10.758,0,0,0,42.36,54.58" transform="translate(-16.449 -34.653)" fill="#275394"/>
      <path id="Path_629" data-name="Path 629" d="M42.373,55a10.65,10.65,0,1,0-10.65,10.65A10.65,10.65,0,0,0,42.373,55" transform="translate(-16.63 -35.072)" fill="#285395"/>
      <path id="Path_630" data-name="Path 630" d="M42.385,55.428A10.542,10.542,0,1,0,31.843,65.97,10.542,10.542,0,0,0,42.385,55.428" transform="translate(-16.809 -35.492)" fill="#285496"/>
      <path id="Path_631" data-name="Path 631" d="M42.681,55.832A10.434,10.434,0,1,0,32.247,66.266,10.434,10.434,0,0,0,42.681,55.832" transform="translate(-17.213 -35.896)" fill="#285496"/>
      <path id="Path_632" data-name="Path 632" d="M42.69,56.76a10.2,10.2,0,1,0-10.2,10.2,10.2,10.2,0,0,0,10.2-10.2" transform="translate(-17.591 -36.814)" fill="#285497"/>
      <path id="Path_633" data-name="Path 633" d="M42.7,57.688a9.963,9.963,0,1,0-9.963,9.963A9.963,9.963,0,0,0,42.7,57.688" transform="translate(-17.969 -37.733)" fill="#295598"/>
      <path id="Path_634" data-name="Path 634" d="M42.707,58.615a9.728,9.728,0,1,0-9.728,9.728,9.728,9.728,0,0,0,9.728-9.728" transform="translate(-18.348 -38.65)" fill="#295599"/>
      <path id="Path_635" data-name="Path 635" d="M42.715,59.543a9.493,9.493,0,1,0-9.493,9.493,9.493,9.493,0,0,0,9.493-9.493" transform="translate(-18.726 -39.567)" fill="#29569a"/>
      <path id="Path_636" data-name="Path 636" d="M42.725,60.471a9.257,9.257,0,1,0-9.257,9.257,9.257,9.257,0,0,0,9.257-9.257" transform="translate(-19.105 -40.486)" fill="#29569b"/>
      <path id="Path_637" data-name="Path 637" d="M42.734,61.4a9.022,9.022,0,1,0-9.022,9.022A9.022,9.022,0,0,0,42.734,61.4" transform="translate(-19.484 -41.404)" fill="#2a579c"/>
      <path id="Path_638" data-name="Path 638" d="M42.742,62.326a8.787,8.787,0,1,0-8.787,8.787,8.786,8.786,0,0,0,8.787-8.787" transform="translate(-19.862 -42.321)" fill="#2a579d"/>
      <path id="Path_639" data-name="Path 639" d="M42.751,63.253A8.551,8.551,0,1,0,34.2,71.8a8.551,8.551,0,0,0,8.551-8.551" transform="translate(-20.241 -43.238)" fill="#2a589e"/>
      <path id="Path_640" data-name="Path 640" d="M42.76,64.182A8.316,8.316,0,1,0,34.444,72.5a8.316,8.316,0,0,0,8.316-8.316" transform="translate(-20.619 -44.157)" fill="#2b58a0"/>
      <path id="Path_641" data-name="Path 641" d="M42.769,65.109a8.08,8.08,0,1,0-8.08,8.08,8.08,8.08,0,0,0,8.08-8.08" transform="translate(-20.997 -45.075)" fill="#2b59a1"/>
      <path id="Path_642" data-name="Path 642" d="M42.778,66.036a7.845,7.845,0,1,0-7.845,7.845,7.845,7.845,0,0,0,7.845-7.845" transform="translate(-21.376 -45.992)" fill="#2b59a2"/>
      <path id="Path_643" data-name="Path 643" d="M42.786,66.965a7.61,7.61,0,1,0-7.61,7.61,7.61,7.61,0,0,0,7.61-7.61" transform="translate(-21.754 -46.91)" fill="#2c5aa3"/>
      <path id="Path_644" data-name="Path 644" d="M42.8,67.892a7.374,7.374,0,1,0-7.374,7.374A7.374,7.374,0,0,0,42.8,67.892" transform="translate(-22.133 -47.828)" fill="#2c5aa4"/>
      <path id="Path_645" data-name="Path 645" d="M42.8,68.82a7.139,7.139,0,1,0-7.139,7.139A7.139,7.139,0,0,0,42.8,68.82" transform="translate(-22.512 -48.746)" fill="#2c5ba5"/>
      <path id="Path_646" data-name="Path 646" d="M42.813,69.747a6.9,6.9,0,1,0-6.9,6.9,6.9,6.9,0,0,0,6.9-6.9" transform="translate(-22.89 -49.664)" fill="#2c5ba6"/>
      <path id="Path_647" data-name="Path 647" d="M42.822,70.675a6.668,6.668,0,1,0-6.668,6.668,6.668,6.668,0,0,0,6.668-6.668" transform="translate(-23.269 -50.581)" fill="#2d5ca7"/>
      <path id="Path_648" data-name="Path 648" d="M42.83,71.6A6.433,6.433,0,1,0,36.4,78.035,6.433,6.433,0,0,0,42.83,71.6" transform="translate(-23.647 -51.499)" fill="#2d5ca8"/>
    </g>
  </g>
  <g id="Group_255" data-name="Group 255" transform="translate(0)">
    <g id="Group_254" data-name="Group 254" clip-path="url(#clip-path-2)">
      <path id="Path_650" data-name="Path 650" d="M88.318,70.572h-4.65l-.11.012a2.665,2.665,0,0,0-2.08,2.558,1.936,1.936,0,0,0,.637,1.556,2.106,2.106,0,0,0,1.415.513h2.832c.147,0,1.052.207.992,1.786a2,2,0,0,1-1.364,1.867,1.487,1.487,0,0,1-.633.143H80.605a.317.317,0,0,0,0,.633c5.018.049,4.858.028,5.18-.029a2.753,2.753,0,0,0,2.156-2.625,2.234,2.234,0,0,0-.836-2.1,1.7,1.7,0,0,0-.954-.279L83.119,74.6a1.349,1.349,0,0,1-1.054-1.443c0-.007,0,.011,0,0A1.978,1.978,0,0,1,83.7,71.2h4.616a.317.317,0,0,0,0-.633" transform="translate(-63.377 -55.691)" fill="#fff"/>
      <path id="Path_651" data-name="Path 651" d="M126.566,70.572h-3.475c-1.573,0-2.283,1.821-2.313,1.9,0,.013-.008,0-.012.017a38.488,38.488,0,0,0-.854,5.258c.027,1.19,1.239,1.622,1.876,1.69.011,0,.021-.009.032-.009h4.83a.317.317,0,0,0,0-.633h-4.812c-.151,0-1.31-.177-1.331-1.1a15.575,15.575,0,0,1,.3-2.4l6.722-.05a.294.294,0,0,0,.29-.243,21.2,21.2,0,0,0,.315-2.824,1.593,1.593,0,0,0-1.569-1.613m.708,4.094-6.358.053c.2-1.036.394-1.885.427-2.038.068-.17.651-1.477,1.748-1.477h3.428c.186,0,1.021.328,1.021,1.023a18.313,18.313,0,0,1-.266,2.438" transform="translate(-94.628 -55.691)" fill="#fff"/>
      <path id="Path_652" data-name="Path 652" d="M48.353,72.353c.174-1.187-1.324-1.781-1.6-1.781h0c-1.21,0-3.043.042-3.235.035-.026,0-.052.014-.078.018A3.393,3.393,0,0,0,41.341,72.6l.005.006a4.59,4.59,0,0,0-.105.484c-.053.279-.127.679-.215,1.157-.176.955-.409,2.229-.641,3.5-.464,2.547-.924,5.094-.924,5.094a.289.289,0,1,0,.569.1c.195-1.077.514-2.84.834-4.6a2.725,2.725,0,0,0,1.74,1.056.178.178,0,0,0,.035,0l2.971-.085a.28.28,0,0,0,.075-.012,2.969,2.969,0,0,0,1.851-1.939.313.313,0,0,0,.007-.032l.807-4.94c0-.011,0-.038,0-.048m-.577-.011-.8,4.887a2.423,2.423,0,0,1-1.421,1.518l-2.91.083a2.313,2.313,0,0,1-1.63-1.306c.428-2.352.822-4.5.873-4.723a2.91,2.91,0,0,1,1.631-1.587c.111.007.263.007.472.007h1.125l1.566,0c.343,0,1.178.58,1.094,1.125" transform="translate(-31.136 -55.691)" fill="#fff"/>
      <path id="Path_653" data-name="Path 653" d="M15.082,61.406a.884.884,0,1,1-.827.882.856.856,0,0,1,.827-.882" transform="translate(-11.249 -48.458)" fill="#fdb718"/>
      <path id="Path_654" data-name="Path 654" d="M9.262,49.267a.876.876,0,0,0-.562-.832q-.413.747-.762,1.533a.788.788,0,0,0,.5.181.856.856,0,0,0,.827-.882" transform="translate(-6.264 -38.222)" fill="#fdb718"/>
      <path id="Path_655" data-name="Path 655" d="M3.719,63.29a.91.91,0,0,0-.235-.615q-.255.729-.454,1.482a.866.866,0,0,0,.689-.867" transform="translate(-2.391 -49.459)" fill="#fdb718"/>
      <path id="Path_656" data-name="Path 656" d="M15.629,112.392a.884.884,0,1,1-.827.882.856.856,0,0,1,.827-.882" transform="translate(-11.681 -88.693)" fill="#fdb718"/>
      <path id="Path_657" data-name="Path 657" d="M2.665,113.884a.714.714,0,0,0-.588-.719q.141.654.324,1.291a.743.743,0,0,0,.264-.572" transform="translate(-1.639 -89.303)" fill="#fdb718"/>
      <path id="Path_658" data-name="Path 658" d="M8.333,126.921a.856.856,0,0,0-.827-.882.822.822,0,0,0-.74.5q.257.634.556,1.245a.773.773,0,0,0,.185.024.856.856,0,0,0,.827-.882" transform="translate(-5.339 -99.462)" fill="#fdb718"/>
      <path id="Path_659" data-name="Path 659" d="M4.4,80.686H2.739a1.027,1.027,0,0,0-.783-.574.9.9,0,0,0,0,1.8.746.746,0,0,0,.783-.595H4.6l1.74-3.163H9.027v-.422h-4.4L2.821,74.571H.4c-.043.21-.082.421-.118.633H2.558l1.48,2.53H.013c-.006.14-.01.281-.013.422H5.837Z" transform="translate(0 -58.847)" fill="#fdb718"/>
      <path id="Path_660" data-name="Path 660" d="M52.7,59.342l-1.061-.007a.5.5,0,0,1-.257-.741l.014-.021c.023-.028.233-.275.448-.275l.788.026.04-.28a.221.221,0,0,0-.128-.262h-.869v-.211l.917,0a.431.431,0,0,1,.289.5Zm-1-.211h.819l.085-.6-.762-.026c-.077,0-.206.109-.274.189a.346.346,0,0,0-.028.273.328.328,0,0,0,.16.16" transform="translate(-40.489 -45.432)" fill="#fff"/>
      <path id="Path_661" data-name="Path 661" d="M60.064,59.365l-.856,0-.149-.033-.023-.04a1.477,1.477,0,0,1-.046-1.1.887.887,0,0,1,.434-.61l.022-.011h.912v.211H59.5a.7.7,0,0,0-.307.465,1.346,1.346,0,0,0,.005.9l.044.01h.822Z" transform="translate(-46.482 -45.432)" fill="#fff"/>
      <rect id="Rectangle_660" data-name="Rectangle 660" width="2.35" height="0.211" transform="translate(13.869 13.824) rotate(-79.803)" fill="#fff"/>
      <path id="Path_662" data-name="Path 662" d="M68.122,59.2l-.208-.036.206-1.2a.156.156,0,0,0-.068-.143l-.024-.012-.016-.022a1.262,1.262,0,0,0-.671-.061.651.651,0,0,0-.225.242l-.188-.1a.843.843,0,0,1,.338-.345l.035-.01c.211-.021.706-.048.867.126a.377.377,0,0,1,.163.343Z" transform="translate(-52.815 -45.376)" fill="#fff"/>
    </g>
  </g>
</svg>
