<svg xmlns="http://www.w3.org/2000/svg" xmlns:xlink="http://www.w3.org/1999/xlink" width="30.601" height="31.047" viewBox="0 0 30.601 31.047">
  <defs>
    <clipPath id="clip-path">
      <rect id="Rectangle_728" data-name="Rectangle 728" width="30.601" height="31.047" transform="translate(0 0)" fill="none"/>
    </clipPath>
  </defs>
  <g id="Group_397" data-name="Group 397" transform="translate(0 0)">
    <g id="Group_396" data-name="Group 396" clip-path="url(#clip-path)">
      <path id="Path_696" data-name="Path 696" d="M25.31,10.189a2.221,2.221,0,0,0,1.361-1.843V3.615C26.671.353,17.345,0,13.335,0S0,.353,0,3.615V8.346C0,10,2.4,10.906,5.291,11.4A2.22,2.22,0,0,0,3.93,13.239V17.97a2.093,2.093,0,0,0,1.158,1.714C2.291,20.183,0,21.085,0,22.7v4.731c0,3.262,9.326,3.615,13.335,3.615s13.336-.353,13.336-3.615V22.7a2.1,2.1,0,0,0-1.158-1.715c2.8-.5,5.088-1.4,5.088-3.016V13.239c0-1.655-2.4-2.559-5.291-3.05m2.049,3.05a35.451,35.451,0,0,1-10.093,1.116A35.454,35.454,0,0,1,7.172,13.239a35.5,35.5,0,0,1,10.094-1.115,35.5,35.5,0,0,1,10.093,1.115M13.335,2.5A35.5,35.5,0,0,1,23.428,3.615,35.451,35.451,0,0,1,13.335,4.731,35.428,35.428,0,0,1,3.244,3.615,35.484,35.484,0,0,1,13.335,2.5M2.5,5.971c3.053,1.1,8.14,1.26,10.835,1.26s7.784-.164,10.836-1.26V8.025c-.889.554-4.6,1.437-10.836,1.437S3.39,8.579,2.5,8.025ZM13.335,21.585A35.466,35.466,0,0,1,23.429,22.7a35.478,35.478,0,0,1-10.094,1.115A35.454,35.454,0,0,1,3.243,22.7a35.437,35.437,0,0,1,10.092-1.116m0,6.962c-6.236,0-9.946-.882-10.835-1.436V25.057c3.053,1.1,8.14,1.259,10.835,1.259s7.784-.163,10.836-1.259v2.054c-.888.554-4.6,1.436-10.836,1.436m3.93-9.462c-6.236,0-9.946-.882-10.835-1.436V15.6c3.052,1.1,8.141,1.26,10.836,1.26s7.783-.164,10.835-1.26v2.054c-.889.554-4.6,1.436-10.836,1.436" fill="#f4b127"/>
    </g>
  </g>
</svg>
