<svg xmlns="http://www.w3.org/2000/svg" xmlns:xlink="http://www.w3.org/1999/xlink" width="32.658" height="35.798" viewBox="0 0 32.658 35.798">
  <defs>
    <clipPath id="clip-path">
      <rect id="Rectangle_726" data-name="Rectangle 726" width="32.658" height="35.798" transform="translate(0 0)" fill="none"/>
    </clipPath>
  </defs>
  <g id="Group_393" data-name="Group 393" transform="translate(0 0)">
    <g id="Group_392" data-name="Group 392" clip-path="url(#clip-path)">
      <path id="Path_692" data-name="Path 692" d="M27.881,3.14H26.76V1.25A1.25,1.25,0,0,0,25.51,0H23.294a1.25,1.25,0,0,0-1.25,1.25V3.14H18.687V1.25A1.25,1.25,0,0,0,17.437,0H15.22a1.25,1.25,0,0,0-1.249,1.25V3.14H10.614V1.25A1.25,1.25,0,0,0,9.364,0H7.148A1.25,1.25,0,0,0,5.9,1.25V3.14H4.777A4.783,4.783,0,0,0,0,7.917v23.1A4.782,4.782,0,0,0,4.777,35.8h23.1a4.783,4.783,0,0,0,4.777-4.777V7.917A4.784,4.784,0,0,0,27.881,3.14m2.277,27.881A2.279,2.279,0,0,1,27.881,33.3H4.777A2.279,2.279,0,0,1,2.5,31.021V7.917A2.28,2.28,0,0,1,4.777,5.64H5.9v3a1.25,1.25,0,0,0,1.25,1.25H9.364a1.25,1.25,0,0,0,1.25-1.25v-3h3.357v3a1.249,1.249,0,0,0,1.249,1.25h2.217a1.249,1.249,0,0,0,1.25-1.25v-3h3.357v3a1.249,1.249,0,0,0,1.25,1.25H25.51a1.25,1.25,0,0,0,1.25-1.25v-3h1.121a2.28,2.28,0,0,1,2.277,2.277Z" fill="#f4b127"/>
      <path id="Path_693" data-name="Path 693" d="M9.122,15.553a5.077,5.077,0,0,1-1.317.286V18.65a5.158,5.158,0,0,0,.92-.065c.3-.05.632-.117.984-.2v8.957h2.958V14.823H10.522a6.713,6.713,0,0,1-1.4.73" fill="#f4b127"/>
      <path id="Path_694" data-name="Path 694" d="M20.875,19.481c-.29,0-.655.021-1.1.061-.346.031-.634.074-.891.122l.207-2.013h5.127V14.933H16.234l-.61,6.72h4.243q2.043,0,2.043,1.442a1.751,1.751,0,0,1-.558,1.313,1.856,1.856,0,0,1-1.328.536,2.188,2.188,0,0,1-1.321-.383,1.363,1.363,0,0,1-.527-1.179H15.144a4.567,4.567,0,0,0,.637,2.292A3.817,3.817,0,0,0,17.45,27.13a6.03,6.03,0,0,0,2.574.5,5.191,5.191,0,0,0,2.561-.61,4.512,4.512,0,0,0,1.72-1.641,4.356,4.356,0,0,0,.619-2.288,3.326,3.326,0,0,0-1.11-2.653,4.326,4.326,0,0,0-2.939-.961" fill="#f4b127"/>
    </g>
  </g>
</svg>
