<svg id="Group_399" data-name="Group 399" xmlns="http://www.w3.org/2000/svg" xmlns:xlink="http://www.w3.org/1999/xlink" width="37.389" height="25.415" viewBox="0 0 37.389 25.415">
  <defs>
    <clipPath id="clip-path">
      <rect id="Rectangle_729" data-name="Rectangle 729" width="37.389" height="25.415" transform="translate(0 0)" fill="none"/>
    </clipPath>
  </defs>
  <g id="Group_398" data-name="Group 398" clip-path="url(#clip-path)">
    <path id="Path_697" data-name="Path 697" d="M33.637,0H3.752A3.757,3.757,0,0,0,0,3.752V21.663a3.757,3.757,0,0,0,3.752,3.752H33.637a3.757,3.757,0,0,0,3.752-3.752V3.752A3.757,3.757,0,0,0,33.637,0M3.752,2.5H33.637a1.253,1.253,0,0,1,1.252,1.252V5.26H2.5V3.752A1.253,1.253,0,0,1,3.752,2.5M33.637,22.915H3.752A1.254,1.254,0,0,1,2.5,21.663V7.76H34.889v13.9a1.254,1.254,0,0,1-1.252,1.252" fill="#f4b127"/>
    <path id="Path_698" data-name="Path 698" d="M30.131,12.813H27.66a2.974,2.974,0,0,0-2.971,2.97v2.472a2.975,2.975,0,0,0,2.971,2.971h2.471A2.975,2.975,0,0,0,33.1,18.255V15.783a2.974,2.974,0,0,0-2.971-2.97m.471,5.442a.471.471,0,0,1-.471.471H27.66a.471.471,0,0,1-.471-.471V15.783a.471.471,0,0,1,.471-.47h2.471a.471.471,0,0,1,.471.47Z" fill="#f4b127"/>
  </g>
</svg>
