<svg xmlns="http://www.w3.org/2000/svg" xmlns:xlink="http://www.w3.org/1999/xlink" width="31.443" height="43.276" viewBox="0 0 31.443 43.276">
  <defs>
    <clipPath id="clip-path">
      <rect id="Rectangle_725" data-name="Rectangle 725" width="31.443" height="43.276" transform="translate(0 0)" fill="none"/>
    </clipPath>
  </defs>
  <g id="Group_391" data-name="Group 391" transform="translate(0 0)">
    <g id="Group_390" data-name="Group 390" clip-path="url(#clip-path)">
      <path id="Path_687" data-name="Path 687" d="M27,3.995H25.985A5.242,5.242,0,0,0,20.908,0H10.535A5.242,5.242,0,0,0,5.458,3.995H4.444A4.449,4.449,0,0,0,0,8.439V38.382a4.9,4.9,0,0,0,4.894,4.9H26.548a4.9,4.9,0,0,0,4.9-4.9V8.439A4.448,4.448,0,0,0,27,3.995M10.535,2.5H20.908a2.744,2.744,0,0,1,0,5.489H10.535a2.744,2.744,0,0,1,0-5.489M28.943,38.382a2.4,2.4,0,0,1-2.4,2.4H4.894a2.4,2.4,0,0,1-2.394-2.4V8.439A1.946,1.946,0,0,1,4.444,6.495H5.458a5.241,5.241,0,0,0,5.077,3.994H20.908a5.241,5.241,0,0,0,5.077-3.994H27a1.946,1.946,0,0,1,1.943,1.944Z" fill="#f4b127"/>
      <path id="Path_688" data-name="Path 688" d="M24.9,16.235H6.541a1.25,1.25,0,0,0,0,2.5H24.9a1.25,1.25,0,0,0,0-2.5" fill="#f4b127"/>
      <path id="Path_689" data-name="Path 689" d="M24.9,21.01H6.541a1.25,1.25,0,0,0,0,2.5H24.9a1.25,1.25,0,0,0,0-2.5" fill="#f4b127"/>
      <path id="Path_690" data-name="Path 690" d="M24.9,25.783H6.541a1.25,1.25,0,0,0,0,2.5H24.9a1.25,1.25,0,0,0,0-2.5" fill="#f4b127"/>
      <path id="Path_691" data-name="Path 691" d="M24.9,30.558H6.541a1.25,1.25,0,1,0,0,2.5H24.9a1.25,1.25,0,1,0,0-2.5" fill="#f4b127"/>
    </g>
  </g>
</svg>
