<svg xmlns="http://www.w3.org/2000/svg" xmlns:xlink="http://www.w3.org/1999/xlink" width="37.39" height="27.633" viewBox="0 0 37.39 27.633">
  <defs>
    <clipPath id="clip-path">
      <rect id="Rectangle_727" data-name="Rectangle 727" width="37.39" height="27.633" transform="translate(0 0)" fill="none"/>
    </clipPath>
  </defs>
  <g id="Group_395" data-name="Group 395" transform="translate(0 0)">
    <g id="Group_394" data-name="Group 394" clip-path="url(#clip-path)">
      <path id="Path_695" data-name="Path 695" d="M36.122,1.628c-.021-.022-.03-.051-.053-.072,0,0-.01,0-.014-.009A4.856,4.856,0,0,0,32.509,0H4.881A4.887,4.887,0,0,0,0,4.88V22.753a4.887,4.887,0,0,0,4.881,4.88H32.509a4.886,4.886,0,0,0,4.881-4.88V4.88a4.849,4.849,0,0,0-1.268-3.252M32.509,2.5a2.366,2.366,0,0,1,.852.164L20.906,16.29a3.065,3.065,0,0,1-4.421,0L4.66,3.165a1.25,1.25,0,0,0-.838-.4A2.348,2.348,0,0,1,4.881,2.5ZM14.627,17.964a5.565,5.565,0,0,0,8.13.007l2.457-2.688,5.294,9.85H6.763l5.42-9.882ZM2.5,22.753V4.88A2.409,2.409,0,0,1,2.548,4.4a1.25,1.25,0,0,0,.254.435l7.609,8.445-6.4,11.677A2.38,2.38,0,0,1,2.5,22.753m32.39,0A2.375,2.375,0,0,1,33.273,25L27,13.327l7.871-8.611c0,.055.017.108.017.164Z" fill="#f4b127"/>
    </g>
  </g>
</svg>
