<svg xmlns="http://www.w3.org/2000/svg" viewBox="0 0 63.75 63.75"><defs><style>.cls-1{fill:#eb6f5f;}.cls-2{fill:#f27362;}.cls-3{fill:#d96758;}.cls-4{fill:#f5b227;}.cls-5{fill:none;}</style></defs><g id="Layer_2" data-name="Layer 2"><g id="Layer_2-2" data-name="Layer 2"><polygon class="cls-1" points="31.84 38.68 31.84 63.15 54.36 55.37 54.36 30.9 31.84 38.68"/><polygon class="cls-2" points="31.84 38.68 31.84 63.15 9.33 55.37 9.33 30.9 31.84 38.68"/><polygon class="cls-3" points="31.9 38.68 24.26 49.26 1.6 41.03 9.39 30.9 31.9 38.68"/><polygon class="cls-3" points="31.84 38.68 39.49 49.26 62.15 41.03 54.36 30.9 31.84 38.68"/><polygon class="cls-2" points="54.36 30.9 31.84 22.33 31.9 38.68 54.36 30.9"/><polygon class="cls-1" points="9.39 30.9 31.84 22.33 31.9 38.68 9.39 30.9"/><path class="cls-4" d="M22.66,13.45A10.68,10.68,0,0,1,30.93,22a19,19,0,0,0,.92,3.5A19.77,19.77,0,0,0,32.77,22a10.67,10.67,0,0,1,8.3-8.54l1.76-.39a17.52,17.52,0,0,0-2.29-.73,10.68,10.68,0,0,1-7.82-8.45A18.56,18.56,0,0,0,31.85.6,18.52,18.52,0,0,0,31,3.87a10.67,10.67,0,0,1-7.81,8.45,17.66,17.66,0,0,0-2.3.73l1.8.4"/><path class="cls-4" d="M15.73,25.72a6,6,0,0,1,4.62,4.76,10.9,10.9,0,0,0,.51,2,10.12,10.12,0,0,0,.51-2A6,6,0,0,1,26,25.71l1-.22a10.21,10.21,0,0,0-1.29-.4,6,6,0,0,1-4.36-4.72,10.71,10.71,0,0,0-.49-1.83,10.71,10.71,0,0,0-.49,1.83A6,6,0,0,1,16,25.09a9.58,9.58,0,0,0-1.28.4l1,.23"/><path class="cls-4" d="M37.21,25.72a6,6,0,0,1,4.61,4.76,10.9,10.9,0,0,0,.51,2,10.09,10.09,0,0,0,.52-2,6,6,0,0,1,4.63-4.77l1-.22a10.06,10.06,0,0,0-1.28-.4,6,6,0,0,1-4.37-4.72,10.71,10.71,0,0,0-.49-1.83,9.89,9.89,0,0,0-.48,1.83,6,6,0,0,1-4.37,4.72,10.06,10.06,0,0,0-1.28.4l1,.23"/><rect class="cls-5" width="63.75" height="63.75"/></g></g></svg>