<svg xmlns="http://www.w3.org/2000/svg" viewBox="0 0 63.75 63.75"><defs><style>.cls-1{fill:#f5b227;}.cls-2{fill:#fff;}.cls-3{fill:#f27362;}.cls-4{fill:none;}</style></defs><g id="Layer_2" data-name="Layer 2"><g id="Layer_2-2" data-name="Layer 2"><rect class="cls-1" x="1.17" y="15.06" width="61.41" height="47.73"/><rect class="cls-2" x="14.1" y="32.51" width="35.49" height="7.33"/><rect class="cls-2" x="14.1" y="43.98" width="35.49" height="3.88"/><rect class="cls-2" x="14.1" y="51.56" width="35.49" height="3.88"/><path class="cls-3" d="M54.93,20.38a3.73,3.73,0,0,1-1.25,5.35L51.91,27,45,17.23l-1.72,7a5.17,5.17,0,0,1-1.43,2.63,3.41,3.41,0,0,1-2.42,1,5,5,0,0,1-2.63-1L35,25.55,42.25,16l-6.85.61a4.78,4.78,0,0,1-3.46-.89,3.47,3.47,0,0,1-1.38-2.9,5,5,0,0,1,.25-1.59l.73-2.14L42.67,13l-2.5-6a5.56,5.56,0,0,1-.49-2.2A3.67,3.67,0,0,1,40.75,2,4.19,4.19,0,0,1,43.84,1h2.07V12.09l4.65-4.16a4.94,4.94,0,0,1,3.3-1.34A3.35,3.35,0,0,1,56,7.32a4.67,4.67,0,0,1,1.4,2.26l.67,2.08L47.14,15.09l6,3.61a5.19,5.19,0,0,1,1.74,1.68"/><rect class="cls-4" width="63.75" height="63.75"/></g></g></svg>