<svg xmlns="http://www.w3.org/2000/svg" viewBox="0 0 63.75 63.75"><defs><style>.cls-1{fill:#f5b227;}.cls-2{fill:#50bfb7;}.cls-3{fill:#00b0a5;}.cls-4{fill:none;}</style></defs><g id="Layer_2" data-name="Layer 2"><g id="Layer_2-2" data-name="Layer 2"><polygon class="cls-1" points="28.25 20.74 38.74 19.35 28.63 18.01 37.55 13.06 27.28 15.6 33.71 7.2 25.61 13.4 28.42 3.6 22.96 12.66 21.57 2.17 20.23 12.28 15.27 3.37 17.82 13.64 9.42 7.2 15.62 15.3 5.82 12.5 14.88 17.96 4.39 19.35 14.5 20.69 5.58 25.64 15.85 23.09 9.42 31.49 17.52 25.29 14.71 35.1 20.17 26.04 21.57 36.52 22.91 26.41 27.86 35.33 25.31 25.06 33.71 31.49 27.51 23.4 37.32 26.2 28.25 20.74"/><g id="WDhb4j.tif"><path class="cls-2" d="M59.36,60.56a1.77,1.77,0,0,1-1.84,1q-18.78,0-37.56,0c-1.28,0-1.76-.49-1.74-1.78A18,18,0,0,1,33.07,42.44a19.94,19.94,0,0,1,2.77-.25c1.94,0,3.87,0,5.81,0a17.89,17.89,0,0,1,17,13.2c.29,1,.4,2.15.59,3.23,0,.13,0,.26.08.39Z"/><rect class="cls-3" x="28.81" y="19.35" width="19.97" height="26.91" rx="9.98"/></g><rect class="cls-4" width="63.75" height="63.75"/></g></g></svg>